<svg width="20" height="21" viewBox="0 0 20 21" fill="none" xmlns="http://www.w3.org/2000/svg">
<path d="M13.7909 10.5055L19.4767 4.8197C20.1744 4.12197 20.1744 2.99072 19.4767 2.29242L18.2131 1.02879C17.5153 0.331061 16.3841 0.331061 15.6858 1.02879L10 6.71458L4.3142 1.02879C3.61648 0.331061 2.48523 0.331061 1.78693 1.02879L0.523295 2.29242C-0.174432 2.99015 -0.174432 4.1214 0.523295 4.8197L6.20909 10.5055L0.523295 16.1913C-0.174432 16.889 -0.174432 18.0203 0.523295 18.7186L1.78693 19.9822C2.48466 20.6799 3.61648 20.6799 4.3142 19.9822L10 14.2964L15.6858 19.9822C16.3835 20.6799 17.5153 20.6799 18.2131 19.9822L19.4767 18.7186C20.1744 18.0208 20.1744 16.8896 19.4767 16.1913L13.7909 10.5055Z" fill="black"/>
</svg>
