<svg width="11" height="12" viewBox="0 0 11 12" fill="none" xmlns="http://www.w3.org/2000/svg">
<path d="M10.3844 0.999934H7.7058L7.49598 0.582523C7.45153 0.493286 7.38307 0.41822 7.29828 0.365773C7.2135 0.313326 7.11576 0.285577 7.01607 0.285648H4.46473C4.36526 0.285266 4.2677 0.312911 4.18321 0.365417C4.09873 0.417923 4.03075 0.493165 3.98705 0.582523L3.77723 0.999934H1.09866C1.00394 0.999934 0.913098 1.03756 0.846121 1.10454C0.779144 1.17152 0.741516 1.26236 0.741516 1.35708L0.741516 2.07136C0.741516 2.16608 0.779144 2.25692 0.846121 2.3239C0.913098 2.39088 1.00394 2.42851 1.09866 2.42851H10.3844C10.4791 2.42851 10.5699 2.39088 10.6369 2.3239C10.7039 2.25692 10.7415 2.16608 10.7415 2.07136V1.35708C10.7415 1.26236 10.7039 1.17152 10.6369 1.10454C10.5699 1.03756 10.4791 0.999934 10.3844 0.999934ZM1.92902 10.7098C1.94605 10.9818 2.06611 11.2371 2.26474 11.4237C2.46338 11.6103 2.72567 11.7142 2.99821 11.7142H8.48482C8.75736 11.7142 9.01965 11.6103 9.21829 11.4237C9.41693 11.2371 9.53698 10.9818 9.55402 10.7098L10.0272 3.14279H1.4558L1.92902 10.7098Z" fill="black"/>
</svg>
