<svg width="10" height="10" viewBox="0 0 10 10" fill="none" xmlns="http://www.w3.org/2000/svg">
<path d="M5 5.625C5.34518 5.625 5.625 5.34518 5.625 5C5.625 4.65482 5.34518 4.375 5 4.375C4.65482 4.375 4.375 4.65482 4.375 5C4.375 5.34518 4.65482 5.625 5 5.625Z" fill="#231F20"/>
<path d="M9.1109 4.79019C8.84424 4.32769 7.37757 2.00686 4.8859 2.08186C2.58173 2.14019 1.2484 4.16519 0.885901 4.79019C0.849331 4.85353 0.830078 4.92538 0.830078 4.99852C0.830078 5.07166 0.849331 5.14351 0.885901 5.20686C1.1484 5.66102 2.55257 7.91519 5.00673 7.91519H5.1109C7.41507 7.85686 8.75257 5.83186 9.1109 5.20686C9.14747 5.14351 9.16672 5.07166 9.16672 4.99852C9.16672 4.92538 9.14747 4.85353 9.1109 4.79019ZM4.9984 6.45686C4.70997 6.45686 4.42802 6.37133 4.18819 6.21108C3.94837 6.05084 3.76145 5.82308 3.65108 5.5566C3.5407 5.29013 3.51182 4.9969 3.56809 4.71402C3.62436 4.43113 3.76325 4.17128 3.9672 3.96733C4.17116 3.76337 4.43101 3.62448 4.71389 3.56821C4.99678 3.51194 5.29001 3.54082 5.55648 3.6512C5.82296 3.76158 6.05072 3.94849 6.21096 4.18832C6.3712 4.42814 6.45673 4.71009 6.45673 4.99852C6.45673 5.3853 6.30309 5.75623 6.0296 6.02972C5.75611 6.30321 5.38518 6.45686 4.9984 6.45686Z" fill="#231F20"/>
</svg>
