<svg width="16" height="15" viewBox="0 0 16 15" fill="none" xmlns="http://www.w3.org/2000/svg">
<path d="M14.4286 5.89286H9.60714V1.07143C9.60714 0.479799 9.12734 0 8.53571 0H7.46429C6.87266 0 6.39286 0.479799 6.39286 1.07143V5.89286H1.57143C0.979799 5.89286 0.5 6.37266 0.5 6.96429V8.03571C0.5 8.62734 0.979799 9.10714 1.57143 9.10714H6.39286V13.9286C6.39286 14.5202 6.87266 15 7.46429 15H8.53571C9.12734 15 9.60714 14.5202 9.60714 13.9286V9.10714H14.4286C15.0202 9.10714 15.5 8.62734 15.5 8.03571V6.96429C15.5 6.37266 15.0202 5.89286 14.4286 5.89286Z" fill="white"/>
</svg>
